P3
2 2 
255
255
9
9
0
0
0
78
78
78
100
100
100
