P3
5 5 
255
0
0
0
0
0
0
0
0
0
0
0
0
0
0
0
32
0
0
255
167
167
0
0
0
0
0
0
0
0
0
30
30
30
76
42
42
0
0
0
0
0
0
0
0
0
69
69
69
79
79
79
90
90
90
102
102
102
116
116
116
75
75
75
80
80
80
85
85
85
91
91
91
97
97
97
